<?xml version="1.0" encoding="utf-8"?>
<!-- Generator: Adobe Illustrator 25.3.1, SVG Export Plug-In . SVG Version: 6.00 Build 0)  -->
<svg version="1.1" id="Layer_1" xmlns="http://www.w3.org/2000/svg" xmlns:xlink="http://www.w3.org/1999/xlink" x="0px" y="0px"
	 viewBox="0 0 792 612" style="enable-background:new 0 0 792 612;" xml:space="preserve">
<style type="text/css">
	.st0{fill:#CE0E2D;}
	.st1{fill:#414042;}
	.st2{fill:#FFFFFF;}
</style>
<g>
	<path class="st0" d="M702.72,325.33c-18.05-18.05-34.81-22.56-53.51-27.72c14.83-7.09,26.43-12.25,38.68-24.5
		c18.05-18.05,32.23-46.42,32.23-79.94c0-29.01-10.32-59.31-30.95-78.65c-34.17-33.52-87.03-35.45-115.39-36.74H64.71v96.05H530.6
		c12.89,0.64,43.83,1.93,43.83,39.32c0,38.03-33.52,38.03-47.06,38.03H64.71v95.41h469.76c13.54,0.65,52.21,2.58,52.21,45.12
		c0,11.6-4.51,22.57-11.6,29.66c-10.96,12.25-24.5,12.89-37.39,13.54H64.71v97.98h518.1c35.45-1.29,82.51-2.58,116.68-37.39
		c23.21-23.21,33.52-58.66,33.52-92.83C733.02,380.12,728.51,350.47,702.72,325.33z"/>
	<rect x="149.03" y="159.72" class="st1" width="268.84" height="286.52"/>
	<path class="st1" d="M58.9,77.78h154.72c101.85,1.29,167.61,1.93,221.11,52.22c47.06,43.84,63.18,108.95,63.18,173.41
		c0,96.05-36.1,186.95-127.64,217.25c-36.75,12.25-77.36,12.25-121.84,12.25H58.9V77.78z M203.3,184.15v244.32h54.79
		c20.63-1.29,40.61-1.93,60.6-21.27c21.92-20.63,34.17-59.31,34.17-101.85c0-26.43-4.51-48.35-11.6-67.05
		c-19.34-51.57-55.44-52.86-83.8-54.15H203.3z"/>
	<path class="st2" d="M164.78,180.02h146.61c15.43,0.7,44.19,1.75,62.78,19.99c11.23,10.52,16.84,27.01,16.84,42.79
		c0,18.24-7.72,33.67-17.54,43.49c-6.66,6.66-12.98,9.47-21.05,13.33c10.17,2.81,19.29,5.26,29.11,15.08
		c14.03,13.68,16.48,29.81,16.48,42.09c0,18.59-5.61,37.88-18.24,50.51c-18.59,18.94-44.19,19.64-63.49,20.34H164.78V180.02z
		 M242.65,326.28v48.05h49.11c7.02-0.35,14.38-0.7,20.34-7.36c3.86-3.86,6.31-9.82,6.31-16.14c0-23.15-21.04-24.2-28.41-24.55
		H242.65z M243,232.28v42.09h43.14c7.37,0,25.6,0,25.6-20.69c0-20.34-16.84-21.05-23.85-21.39H243z"/>
	<g>
		<path class="st2" d="M471.85,503.37h9.29c4.2,0,7.94,0,11.39,3.65c3.57,3.82,3.7,9.08,3.7,11.18c0,2.06-0.08,7.86-4.16,11.68
			c-3.45,3.15-7.48,3.15-10,3.15h-10.21V503.37z M475.88,506.85v22.78h5.25c2.6-0.04,4.58-0.08,6.55-1.22
			c1.98-1.09,4.5-3.78,4.5-10.17c0-4.88-1.43-9.41-6.18-10.88c-1.64-0.5-3.36-0.5-5.46-0.5H475.88z"/>
		<path class="st2" d="M506.29,519.5v10.09h17.14v3.45h-20.97v-29.67h20.46v3.49h-16.64v9.16h14.46v3.49H506.29z"/>
		<path class="st2" d="M539.01,519.33c-4.29-0.88-10.59-2.31-10.59-8.45c0-2.94,1.6-4.79,2.73-5.76c2.65-2.27,5.88-2.52,7.94-2.52
			c2.1,0,5.29,0.21,7.98,2.19c2.94,2.14,3.53,5.17,3.82,6.98l-3.99,0.25c-0.04-0.92-0.17-3.28-2.4-4.92
			c-1.51-1.09-3.4-1.43-5.29-1.43c-3.57,0-6.72,1.47-6.72,4.67c0,3.28,3.28,4.03,5.84,4.62l3.28,0.84c2.27,0.55,3.49,0.8,4.67,1.3
			c4.45,1.85,5.12,5.42,5.12,7.4c0,2.77-1.13,5.38-3.78,7.19c-2.86,1.93-6.26,2.1-8.07,2.1c-2.69,0-11.89-0.42-12.56-10.21
			l4.24-0.55c0.04,1.14,0.17,3.74,2.4,5.72c1.68,1.47,3.91,1.97,6.09,1.97c4.2,0,7.39-2.06,7.39-5.93c0-3.45-2.73-4.37-5.63-4.96
			L539.01,519.33z"/>
		<path class="st2" d="M561.14,503.37v29.67h-3.99v-29.67H561.14z"/>
		<path class="st2" d="M595.97,517.36v15.67h-3.4v-4.16c-2.48,3.61-6.81,4.92-10.84,4.92c-9.16,0-14.79-6.43-14.79-15.21
			c0-7.56,4.54-15.97,15.34-15.97c3.78,0,7.52,1.22,10.34,3.78c1.97,1.89,2.9,3.82,3.36,4.79l-4.08,1.09
			c-0.33-0.88-0.84-2.23-2.06-3.49c-1.18-1.26-3.53-2.9-7.44-2.9c-8.32,0-11.14,6.89-11.14,12.27c0,5.59,2.9,12.19,10.97,12.19
			c3.66,0,10.46-1.81,10.34-9.67h-10.38v-3.32H595.97z"/>
		<path class="st2" d="M627.17,503.37v29.67h-3.57l-16.26-24.12l0.34,24.12h-3.7v-29.67h3.7l16.1,23.78l-0.17-23.78H627.17z"/>
	</g>
</g>
</svg>
